<?xml version="1.0" encoding="UTF-8"?>
<svg id="Capa_2" data-name="Capa 2" xmlns="http://www.w3.org/2000/svg" viewBox="0 0 970.88 232.43">
  <defs>
    <style>
      .cls-1 {
        fill: #01768c;
      }

      .cls-2 {
        fill: #042559;
      }
    </style>
  </defs>
  <g id="Capa_1-2" data-name="Capa 1">
    <g>
      <path class="cls-2" d="M239.63,231.99l-29.16.1c-3.11.01-5.39-1.53-6.08-4.86l-.08-221.44C204.31,2.27,207.4,0,210.5,0l28.83.04c3.05,0,5.56,2.43,5.56,5.74v220.48c0,3.04-2.06,5.72-5.26,5.73Z"/>
      <path class="cls-2" d="M40.94,97.53l.14,53.63v75.24c0,3.27-2.71,5.63-5.79,5.64l-28.94.03c-3.3,0-6.36-1.85-6.36-5.76V5.7C0,2.37,2.92.02,5.76.02h29.54c2.06-.01,5.61,1.73,5.62,4.43l.14,78.8-12.64,4.92-.11,13.67,12.63-4.32Z"/>
      <path class="cls-1" d="M126.33,116.18c-26.71-.54-52.28,6.02-75.68,19.84l-.18-41.95c45.38-21.5,98.48-22.11,144.61-.72l-.09,42.05c-21.4-12.5-44.38-18.77-68.67-19.23Z"/>
      <path class="cls-2" d="M461.46,214.19l11.08-5.56c2.19,3.78,4.49,7.21,8.44,9.15,7.41,3.64,16.23,3.94,23.63.1,6.88-3.57,11.09-10.69,11.08-18.39v-12.28c-6.95,8.6-16.28,12.7-27.11,11.86-9.31-.72-17.53-5.2-23.38-12.66-7.57-9.65-9.24-22.4-5.62-34.1,4.51-14.6,17.6-23.88,32.83-23.55,9.35.2,17.26,3.94,23.25,11.41l.3-10h13.38s-.35,69.3-.35,69.3c-.08,15.87-11.65,28.54-26.59,31.84-16.05,3.54-34.19-.97-40.93-17.11ZM516.79,163.67c0-12.58-10.2-22.77-22.79-22.77s-22.79,10.2-22.79,22.77,10.2,22.77,22.79,22.77,22.79-10.2,22.79-22.77Z"/>
      <path class="cls-2" d="M633.84,178.71l8.14,4.87c.81.49,1.85,2.4,2.32,3.29-13.76,16.99-42.7,17.79-56.82,1.65-9.05-10.34-11.09-24.87-6.19-37.64s17.44-21.61,31.71-21.95c9.51-.23,18.6,2.63,25.22,9.56,7.57,7.93,10.55,18.69,9.33,29.87h-55.05c.37,11.6,9.47,20.21,21.1,20.51,8.21.21,15.61-2.47,20.26-10.16ZM634.25,158.16c-.75-10.9-8.94-17.42-18.77-17.9-11.38-.76-21.4,6.78-22.98,17.96l41.75-.06Z"/>
      <path class="cls-2" d="M697.63,140.82c-11.43-1.24-21.39,6.49-21.47,18.12l-.27,39.32-13.35.04v-68.1s13.38-.03,13.38-.03l.13,10.39c8.94-14.35,31.76-15.21,42.55-4.57,4.9,4.84,7.99,11.75,8.01,18.91l.15,43.47h-13.35s-.25-41.21-.25-41.21c-.06-9.09-6.53-15.38-15.53-16.35Z"/>
      <rect class="cls-2" x="746.9" y="130.14" width="13.68" height="68.28"/>
      <polygon class="cls-2" points="406.85 198.02 392.25 198.2 392.16 156.31 341.12 156.32 341.13 198.21 326.54 198.16 326.55 100.96 341.12 100.97 341.11 142.23 392.19 142.25 392.23 101.07 406.84 100.89 406.85 198.02"/>
      <rect class="cls-2" x="428.57" y="130.12" width="13.66" height="68.14"/>
      <rect class="cls-2" x="549.9" y="130.11" width="13.59" height="68.24"/>
      <ellipse class="cls-2" cx="753.85" cy="106.72" rx="8.85" ry="8.84"/>
      <ellipse class="cls-2" cx="557.07" cy="106.71" rx="8.81" ry="8.81"/>
      <ellipse class="cls-2" cx="435.6" cy="106.74" rx="8.81" ry="8.81"/>
      <path class="cls-2" d="M908.44,179.08c.19-15.38,15.52-21.17,30.42-21.26l18.56-.12-.07-5.08c-.07-4.62-2.91-8.42-7.11-10.39-6.07-2.84-12.97-2.5-19.3-.39-3.25,1.54-5.53,3.56-7.39,7.26l-11.79-4.36c6.34-15.52,28.55-18.5,43.67-13.35,8.87,3.02,15.26,10.92,15.29,20.48l.16,46.51-13.3.11-.02-9.66c-8.52,11.41-24.53,13.95-37.28,8.58-7.74-3.26-11.94-10.35-11.84-18.33ZM949.71,185.57c6.2-4.41,8.44-11.34,7.62-18.32l-20.39.24c-3.01.04-6.34,1.13-9.01,2.1-4.13,2.11-6.28,5.63-6,10.08.24,3.75,2.82,7.08,6.98,8.52,6.68,2.31,14.71,1.7,20.79-2.62Z"/>
      <path class="cls-2" d="M820.4,197c-15.47,6.42-37.77,3.33-43.17-12.96l11.11-4.58c3.49,10.09,16.99,12.18,25.96,7.88,3.41-1.64,4.98-4.63,4.78-8.28-.17-3.15-2.78-6.24-6.5-7.2l-18.38-4.74c-5.18-1.34-10.25-4.27-13.01-8.94-5.69-9.64-1.28-21.37,8.94-25.98,14.23-6.42,36.23-3.33,40.84,12.51l-12.16,3.78c-1.54-3.48-3.64-5.99-7.01-7.14-8.71-2.95-18.98-.42-19.52,6.61-.77,10.01,16.54,8.25,29.33,14.17,7.31,3.38,11.3,10.01,10.87,17.9-.42,7.64-4.61,13.88-12.08,16.98Z"/>
      <path class="cls-2" d="M886.29,196.38c-14.44,7.35-38.52,4.21-43.7-12.01l11.12-4.7c2.89,10.05,16.79,11.9,25.46,7.86,3.51-1.63,5.17-4.75,4.96-8.44-.2-3.43-2.94-6.28-6.78-7.29l-17.86-4.68c-5.23-1.37-10.31-4.21-13.05-8.94-5.24-9.04-1.51-20.38,7.78-25.22,14.35-7.47,36.84-4.32,41.32,11.84l-12.12,3.66c-1.73-4.59-5.14-7.44-9.86-8.08-8.1-1.1-16.35,1.62-16.01,8.41.13,2.56,1.95,5.33,4.72,6.15l11.08,3.26c4.73,1.39,9.59,2.1,13.92,4.27,5.27,2.65,9.04,7.32,9.78,13.05,1.12,8.74-2.41,16.61-10.75,20.86Z"/>
      <g>
        <path class="cls-1" d="M361.61,58l-16.34-.07.09-4.11,20.47.12c.63,5.89-1.41,11.71-5.39,15.79s-9.96,6.29-16.23,5.64c-11.58-1.19-19.5-11.26-18.32-22.72.78-7.62,5.09-14.02,11.32-17.16,9.82-4.96,22.44-2.06,27.19,9.24l-4.17,1.48c-2.45-6.43-8.06-9.42-14.83-9.03-8.66.5-14.7,8-15.03,16.67-.19,5.16,1.33,9.82,4.85,13.13s8.23,4.96,13.45,4.27c6.67-.88,11.86-6.06,12.95-13.24Z"/>
        <path class="cls-1" d="M431.17,85.9l.02-39.92c1.58-.2,3.29-.36,3.95.21s.57,2.79.57,4.39c2.93-3.47,6.64-5.63,11.43-5.46,9.15.34,15.18,8.32,13.88,17.37-.81,5.65-4.46,10.37-9.37,12.07-5.98,2.07-11.76.72-15.94-4.52l-.06,15.46c-.81.65-2.82.78-4.48.4ZM456.91,60.43c.1-6.75-4.5-11.54-10.62-11.51s-10.33,4.44-10.75,10.63c-.44,6.49,3.71,11.89,10.16,12.11,6,.2,11.1-4.53,11.2-11.23Z"/>
        <path class="cls-1" d="M497.48,60.32c0,8.38-6.8,15.17-15.18,15.17s-15.18-6.79-15.18-15.17,6.8-15.17,15.18-15.17,15.18,6.79,15.18,15.17ZM493.12,59.83c-.18-6.7-5.06-11.03-11.02-10.92-5.51.1-10.02,4.36-10.6,10.25-.65,6.56,3.81,12.24,10.08,12.49s11.73-4.76,11.54-11.83Z"/>
        <path class="cls-1" d="M421.46,45.83v28.96s-4.02-.15-4.02-.15c-.75-.03-.48-2.45-.5-3.85-4.46,5.1-11.98,6.66-17.75,2.11-2.24-1.76-3.75-5.39-3.76-8.27l-.08-18.71,4.29.29.1,17.67c.02,4.33,3.28,7.49,7.45,7.81,5.41.41,9.74-3.47,9.77-9.05l.09-16.56c.92-.19,2.37-.26,4.42-.24Z"/>
        <path class="cls-1" d="M378.48,73.93c-.02.99-3.09,1.24-4.18.54l-.08-27.69c0-.91,3.21-1.5,3.71-.72s.6,2.4.78,4.3c2.53-3.32,5.59-5.9,10.23-4.93l-.18,3.82c-5.14-.54-9.9,3.03-9.99,8.33l-.29,16.35Z"/>
      </g>
    </g>
  </g>
</svg>